<svg width="900" height="25721" viewBox="0 0 900 25721" fill="none" xmlns="http://www.w3.org/2000/svg">
<rect width="900" height="1280"/>
<rect y="1283" width="900" height="1512"/>
<rect y="2562" width="900" height="1513"/>
<rect y="3842" width="900" height="1513"/>
<rect y="5122" width="900" height="1513"/>
<rect y="6402" width="900" height="1513"/>
<rect y="7682" width="900" height="1513"/>
<rect y="8962" width="900" height="1513"/>
<rect y="10242" width="900" height="1513"/>
<rect y="11522" width="900" height="1512"/>
<rect y="12802" width="900" height="1513"/>
<rect y="14082" width="900" height="1512"/>
<rect y="15362" width="900" height="1513"/>
<rect y="16642" width="900" height="1513"/>
<rect y="17922" width="900" height="1513"/>
<rect y="19202" width="900" height="1513"/>
<rect y="20482" width="900" height="1513"/>
<rect y="21762" width="900" height="1513"/>
<rect y="23042" width="900" height="1513"/>
<rect y="24322" width="900" height="1399"/>
</svg>
